<svg width="27" height="31" viewBox="0 0 27 31" fill="none" xmlns="http://www.w3.org/2000/svg">
<path fill-rule="evenodd" clip-rule="evenodd" d="M22.1328 0.916656C22.9353 0.916656 23.7049 1.22395 24.2723 1.77093C24.8397 2.31791 25.1585 3.05977 25.1585 3.83332V16.671C23.2889 15.6299 21.0954 15.2653 18.972 15.6427C16.8486 16.0201 14.9343 17.1148 13.5728 18.7302C12.2113 20.3457 11.4918 22.376 11.5434 24.4568C11.595 26.5376 12.4144 28.5325 13.8544 30.0833H3.97842C3.17595 30.0833 2.40635 29.776 1.83891 29.229C1.27148 28.6821 0.952698 27.9402 0.952698 27.1667V3.83332C0.952698 3.05977 1.27148 2.31791 1.83891 1.77093C2.40635 1.22395 3.17595 0.916656 3.97842 0.916656H22.1328ZM20.6199 18.4167C22.2249 18.4167 23.7641 19.0312 24.8989 20.1252C26.0338 21.2192 26.6714 22.7029 26.6714 24.25C26.6714 25.7971 26.0338 27.2808 24.8989 28.3748C23.7641 29.4687 22.2249 30.0833 20.6199 30.0833C19.015 30.0833 17.4758 29.4687 16.3409 28.3748C15.206 27.2808 14.5685 25.7971 14.5685 24.25C14.5685 22.7029 15.206 21.2192 16.3409 20.1252C17.4758 19.0312 19.015 18.4167 20.6199 18.4167ZM20.6199 20.6042C20.2494 20.6042 19.8917 20.7353 19.6148 20.9727C19.3379 21.2101 19.161 21.5371 19.1176 21.8919L19.1071 22.0625V24.25C19.1071 24.6072 19.2432 24.9519 19.4894 25.2189C19.7356 25.4858 20.0749 25.6563 20.4429 25.6981L20.6199 25.7083H22.1328C22.5184 25.7079 22.8893 25.5656 23.1697 25.3104C23.45 25.0553 23.6188 24.7065 23.6414 24.3355C23.664 23.9644 23.5387 23.599 23.2912 23.314C23.0437 23.0289 22.6927 22.8458 22.3098 22.8019L22.1328 22.7917V22.0625C22.1328 21.6757 21.9734 21.3048 21.6897 21.0313C21.406 20.7578 21.0212 20.6042 20.6199 20.6042ZM8.51701 14.0417H7.00415C6.60291 14.0417 6.21811 14.1953 5.9344 14.4688C5.65068 14.7423 5.49129 15.1132 5.49129 15.5C5.49129 15.8868 5.65068 16.2577 5.9344 16.5312C6.21811 16.8047 6.60291 16.9583 7.00415 16.9583H8.51701C8.91825 16.9583 9.30305 16.8047 9.58677 16.5312C9.87049 16.2577 10.0299 15.8868 10.0299 15.5C10.0299 15.1132 9.87049 14.7423 9.58677 14.4688C9.30305 14.1953 8.91825 14.0417 8.51701 14.0417ZM16.0813 8.20832H7.00415C6.61855 8.20873 6.24767 8.35106 5.96728 8.60623C5.68689 8.86139 5.51816 9.21013 5.49557 9.58119C5.47297 9.95225 5.59821 10.3176 5.8457 10.6027C6.09319 10.8877 6.44425 11.0709 6.82715 11.1148L7.00415 11.125H16.0813C16.4669 11.1246 16.8378 10.9822 17.1182 10.7271C17.3986 10.4719 17.5673 10.1232 17.5899 9.75212C17.6125 9.38106 17.4873 9.01569 17.2398 8.73065C16.9923 8.44561 16.6412 8.26243 16.2583 8.21853L16.0813 8.20832Z" fill="#AEAEAE"/>
</svg>
