<svg width="26" height="31" viewBox="0 0 26 31" fill="none" xmlns="http://www.w3.org/2000/svg">
<path fill-rule="evenodd" clip-rule="evenodd" d="M6.12064 2.37499C5.70415 3.29489 5.48987 4.28798 5.49129 5.29166C5.49129 6.06521 5.81007 6.80708 6.3775 7.35406C6.94494 7.90104 7.71454 8.20833 8.51702 8.20833H17.5942C18.3967 8.20833 19.1663 7.90104 19.7337 7.35406C20.3011 6.80708 20.6199 6.06521 20.6199 5.29166C20.6199 4.25479 20.396 3.26749 19.9906 2.37499H22.1328C22.9353 2.37499 23.7049 2.68229 24.2723 3.22927C24.8397 3.77625 25.1585 4.51811 25.1585 5.29166V27.1667C25.1585 27.9402 24.8397 28.6821 24.2723 29.2291C23.7049 29.776 22.9353 30.0833 22.1328 30.0833H3.97842C3.17595 30.0833 2.40635 29.776 1.83891 29.2291C1.27148 28.6821 0.952698 27.9402 0.952698 27.1667V5.29166C0.952698 4.51811 1.27148 3.77625 1.83891 3.22927C2.40635 2.68229 3.17595 2.37499 3.97842 2.37499H6.12064ZM13.0556 18.4167H8.51702C8.11578 18.4167 7.73098 18.5703 7.44726 18.8438C7.16354 19.1173 7.00415 19.4882 7.00415 19.875C7.00415 20.2618 7.16354 20.6327 7.44726 20.9062C7.73098 21.1797 8.11578 21.3333 8.51702 21.3333H13.0556C13.4568 21.3333 13.8416 21.1797 14.1254 20.9062C14.4091 20.6327 14.5685 20.2618 14.5685 19.875C14.5685 19.4882 14.4091 19.1173 14.1254 18.8438C13.8416 18.5703 13.4568 18.4167 13.0556 18.4167ZM17.5942 12.5833H8.51702C8.13142 12.5837 7.76053 12.7261 7.48015 12.9812C7.19976 13.2364 7.03103 13.5851 7.00843 13.9562C6.98583 14.3273 7.11107 14.6926 7.35856 14.9777C7.60605 15.2627 7.95711 15.4459 8.34001 15.4898L8.51702 15.5H17.5942C17.9954 15.5 18.3802 15.3463 18.664 15.0729C18.9477 14.7994 19.1071 14.4284 19.1071 14.0417C19.1071 13.6549 18.9477 13.284 18.664 13.0105C18.3802 12.737 17.9954 12.5833 17.5942 12.5833ZM13.0556 0.916661C13.6943 0.915754 14.326 1.04524 14.909 1.2966C15.4921 1.54795 16.0133 1.91548 16.4384 2.37499C17.0859 3.07208 17.5034 3.96895 17.5806 4.95916L17.5942 5.29166H8.51702C8.51702 4.23437 8.90582 3.26458 9.55333 2.50916L9.67284 2.37499C10.5049 1.47958 11.7122 0.916661 13.0556 0.916661Z" fill="#AEAEAE"/>
</svg>
