<svg width="20" height="20" viewBox="0 0 20 20" fill="none" xmlns="http://www.w3.org/2000/svg">
<path d="M10 3.125C7.5625 3.125 5.625 5.0625 5.625 7.5C5.62073 8.21679 5.79365 8.92353 6.1284 9.55737C6.46315 10.1912 6.94934 10.7325 7.54375 11.1331C5.31875 12.0912 3.75 14.3075 3.75 16.875H5C5 14.125 7.25 11.875 10 11.875C10.75 11.875 11.5 12.0625 12.125 12.375C12.3125 12 12.5 11.625 12.8125 11.3125C12.6881 11.25 12.56 11.2006 12.4331 11.1462C13.0337 10.7471 13.5256 10.2048 13.8645 9.56835C14.2035 8.93187 14.3789 8.2211 14.375 7.5C14.375 5.0625 12.4375 3.125 10 3.125ZM10 4.375C11.75 4.375 13.125 5.75 13.125 7.5C13.125 9.25 11.75 10.625 10 10.625C8.25 10.625 6.875 9.25 6.875 7.5C6.875 5.75 8.25 4.375 10 4.375ZM15.625 11.25C14.25 11.25 13.125 12.375 13.125 13.75V15H11.25V20H20V15H18.125V13.75C18.125 12.375 17 11.25 15.625 11.25ZM15.625 12.5C16.3125 12.5 16.875 13.0625 16.875 13.75V15H14.375V13.75C14.375 13.0625 14.9375 12.5 15.625 12.5ZM12.5 16.25H18.75V18.75H12.5V16.25Z" fill="white"/>
</svg>
