<svg width="38" height="37" viewBox="0 0 38 37" fill="none" xmlns="http://www.w3.org/2000/svg">
<rect x="0.386719" width="37.2924" height="37" rx="6" fill="#E0341D"/>
<path d="M26.252 11.9375H22.3145V10.9531C22.3145 10.518 22.1416 10.1007 21.8339 9.79303C21.5262 9.48535 21.1089 9.3125 20.6738 9.3125H17.3926C16.9575 9.3125 16.5402 9.48535 16.2325 9.79303C15.9248 10.1007 15.752 10.518 15.752 10.9531V11.9375H11.8145C11.6404 11.9375 11.4735 12.0066 11.3504 12.1297C11.2273 12.2528 11.1582 12.4197 11.1582 12.5938C11.1582 12.7678 11.2273 12.9347 11.3504 13.0578C11.4735 13.1809 11.6404 13.25 11.8145 13.25H12.5117L13.291 25.7565C13.3493 26.8578 14.1934 27.6875 15.2598 27.6875H22.8066C23.8784 27.6875 24.7057 26.8762 24.7754 25.7598L25.5547 13.25H26.252C26.426 13.25 26.5929 13.1809 26.716 13.0578C26.8391 12.9347 26.9082 12.7678 26.9082 12.5938C26.9082 12.4197 26.8391 12.2528 26.716 12.1297C26.5929 12.0066 26.426 11.9375 26.252 11.9375ZM16.4316 25.0625H16.4082C16.2381 25.0626 16.0747 24.9967 15.9522 24.8786C15.8298 24.7606 15.758 24.5996 15.752 24.4296L15.4238 15.2421C15.4176 15.0681 15.4808 14.8987 15.5995 14.7712C15.7182 14.6438 15.8827 14.5687 16.0567 14.5625C16.2307 14.5563 16.4001 14.6195 16.5276 14.7382C16.655 14.8569 16.7301 15.0213 16.7363 15.1954L17.0645 24.3829C17.0676 24.4691 17.0537 24.555 17.0236 24.6358C16.9934 24.7167 16.9477 24.7908 16.8889 24.8539C16.8301 24.917 16.7595 24.9679 16.681 25.0037C16.6025 25.0395 16.5178 25.0595 16.4316 25.0625ZM19.6895 24.4062C19.6895 24.5803 19.6203 24.7472 19.4972 24.8703C19.3742 24.9934 19.2073 25.0625 19.0332 25.0625C18.8592 25.0625 18.6922 24.9934 18.5692 24.8703C18.4461 24.7472 18.377 24.5803 18.377 24.4062V15.2188C18.377 15.0447 18.4461 14.8778 18.5692 14.7547C18.6922 14.6316 18.8592 14.5625 19.0332 14.5625C19.2073 14.5625 19.3742 14.6316 19.4972 14.7547C19.6203 14.8778 19.6895 15.0447 19.6895 15.2188V24.4062ZM21.002 11.9375H17.0645V10.9531C17.064 10.9099 17.0721 10.867 17.0884 10.827C17.1047 10.7869 17.1289 10.7506 17.1595 10.72C17.19 10.6894 17.2264 10.6653 17.2664 10.649C17.3065 10.6327 17.3494 10.6245 17.3926 10.625H20.6738C20.7171 10.6245 20.7599 10.6327 20.8 10.649C20.84 10.6653 20.8764 10.6894 20.907 10.72C20.9375 10.7506 20.9617 10.7869 20.978 10.827C20.9943 10.867 21.0024 10.9099 21.002 10.9531V11.9375ZM22.3145 24.4296C22.3084 24.5996 22.2366 24.7606 22.1142 24.8786C21.9917 24.9967 21.8283 25.0626 21.6582 25.0625H21.6344C21.5483 25.0594 21.4635 25.0394 21.3851 25.0036C21.3067 24.9678 21.2361 24.9169 21.1774 24.8537C21.1186 24.7906 21.0729 24.7165 21.0428 24.6358C21.0127 24.555 20.9988 24.469 21.002 24.3829L21.3301 15.1954C21.3331 15.1092 21.3532 15.0245 21.389 14.946C21.4248 14.8676 21.4757 14.7969 21.5388 14.7382C21.6019 14.6794 21.676 14.6337 21.7568 14.6035C21.8376 14.5734 21.9235 14.5594 22.0097 14.5625C22.0959 14.5656 22.1806 14.5856 22.2591 14.6214C22.3375 14.6572 22.4081 14.7081 22.4669 14.7712C22.5257 14.8344 22.5714 14.9084 22.6016 14.9892C22.6317 15.07 22.6456 15.1559 22.6426 15.2421L22.3145 24.4296Z" fill="white"/>
</svg>
