<svg width="20" height="20" viewBox="0 0 20 20" fill="none" xmlns="http://www.w3.org/2000/svg">
<path d="M8.125 1.875C5.71562 1.875 3.75 3.84062 3.75 6.25C3.75 7.75625 4.51875 9.09375 5.68375 9.88312C3.45437 10.8394 1.875 13.0519 1.875 15.625H3.125C3.125 12.8563 5.35625 10.625 8.125 10.625C9.46562 10.625 10.6644 11.1744 11.5625 12.0312L8.61313 14.9806L8.57437 15.1756L8.14438 17.3831L7.94937 18.3006L8.8675 18.1056L11.0738 17.6756L11.2694 17.6369L17.5781 11.3281C18.3031 10.6031 18.3031 9.39687 17.5781 8.67188C17.2282 8.32482 16.7564 8.12849 16.2636 8.12487C15.7708 8.12124 15.2962 8.31063 14.9413 8.6525L12.4612 11.1331C11.9103 10.6054 11.2682 10.1819 10.5663 9.88312C11.1609 9.48168 11.6482 8.94059 11.9853 8.30722C12.3224 7.67385 12.4991 6.9675 12.5 6.25C12.5 3.84062 10.5344 1.875 8.125 1.875ZM8.125 3.125C9.85813 3.125 11.25 4.51687 11.25 6.25C11.25 7.98313 9.85813 9.375 8.125 9.375C6.39187 9.375 5 7.98313 5 6.25C5 4.51687 6.39187 3.125 8.125 3.125ZM16.25 9.375C16.4088 9.375 16.575 9.42625 16.6994 9.55063C16.7584 9.60758 16.8053 9.67584 16.8374 9.75132C16.8694 9.82681 16.886 9.90799 16.886 9.99C16.886 10.072 16.8694 10.1532 16.8374 10.2287C16.8053 10.3042 16.7584 10.3724 16.6994 10.4294L10.6444 16.4844L9.53125 16.7188L9.76562 15.6056L15.8206 9.55063C15.8764 9.49356 15.9433 9.44854 16.0171 9.41833C16.091 9.38812 16.1702 9.37338 16.25 9.375Z" fill="white"/>
</svg>
