<svg width="38" height="37" viewBox="0 0 38 37" fill="none" xmlns="http://www.w3.org/2000/svg">
<rect width="37.2924" height="37" rx="6" fill="#04B663"/>
<path d="M23.8405 10.9062L26.24 13.3058L24.4108 15.1358L22.0112 12.7363L23.8405 10.9062ZM15.0518 22.0945H17.4513L23.2798 16.266L20.8802 13.8665L15.0518 19.695V22.0945Z" fill="white"/>
<path d="M23.8503 24.4938H15.1783C15.1575 24.4938 15.136 24.5018 15.1152 24.5018C15.0888 24.5018 15.0624 24.4946 15.0352 24.4938H12.6524V13.296H18.129L19.7287 11.6963H12.6524C11.7702 11.6963 11.0527 12.413 11.0527 13.296V24.4938C11.0527 25.3769 11.7702 26.0935 12.6524 26.0935H23.8503C24.2745 26.0935 24.6814 25.925 24.9814 25.625C25.2814 25.325 25.45 24.9181 25.45 24.4938V17.5608L23.8503 19.1605V24.4938Z" fill="white"/>
</svg>
