<svg width="50" height="50" viewBox="0 0 50 50" fill="none" xmlns="http://www.w3.org/2000/svg">
<path d="M25 2.08333L6.25 10.4167V22.9167C6.25 34.4792 14.25 45.2917 25 47.9167C35.75 45.2917 43.75 34.4792 43.75 22.9167V10.4167L25 2.08333ZM25 10.2083C26.2361 10.2083 27.4445 10.5749 28.4723 11.2616C29.5001 11.9484 30.3012 12.9245 30.7742 14.0666C31.2473 15.2086 31.3711 16.4653 31.1299 17.6777C30.8888 18.89 30.2935 20.0037 29.4194 20.8778C28.5453 21.7518 27.4317 22.3471 26.2193 22.5882C25.0069 22.8294 23.7503 22.7056 22.6082 22.2326C21.4662 21.7595 20.4901 20.9585 19.8033 19.9307C19.1166 18.9028 18.75 17.6945 18.75 16.4583C18.75 14.8007 19.4085 13.211 20.5806 12.0389C21.7527 10.8668 23.3424 10.2083 25 10.2083ZM25 26.6667C29.1667 26.6667 37.5 28.9375 37.5 33.0833C36.1317 35.1461 34.2742 36.8382 32.0932 38.0087C29.9121 39.1792 27.4753 39.7918 25 39.7918C22.5247 39.7918 20.0879 39.1792 17.9068 38.0087C15.7258 36.8382 13.8683 35.1461 12.5 33.0833C12.5 28.9375 20.8333 26.6667 25 26.6667Z" fill="white"/>
</svg>
