<svg width="38" height="37" viewBox="0 0 38 37" fill="none" xmlns="http://www.w3.org/2000/svg">
<rect x="0.452271" width="37.2924" height="37" rx="6" fill="#E79110"/>
<path d="M19.0985 15.875C18.4023 15.875 17.7346 16.1516 17.2424 16.6438C16.7501 17.1361 16.4735 17.8038 16.4735 18.5C16.4735 19.1962 16.7501 19.8639 17.2424 20.3562C17.7346 20.8484 18.4023 21.125 19.0985 21.125C19.7947 21.125 20.4624 20.8484 20.9547 20.3562C21.4469 19.8639 21.7235 19.1962 21.7235 18.5C21.7235 17.8038 21.4469 17.1361 20.9547 16.6438C20.4624 16.1516 19.7947 15.875 19.0985 15.875ZM19.0985 22.875C17.9382 22.875 16.8254 22.4141 16.0049 21.5936C15.1844 20.7731 14.7235 19.6603 14.7235 18.5C14.7235 17.3397 15.1844 16.2269 16.0049 15.4064C16.8254 14.5859 17.9382 14.125 19.0985 14.125C20.2588 14.125 21.3716 14.5859 22.1921 15.4064C23.0126 16.2269 23.4735 17.3397 23.4735 18.5C23.4735 19.6603 23.0126 20.7731 22.1921 21.5936C21.3716 22.4141 20.2588 22.875 19.0985 22.875ZM19.0985 11.9375C14.7235 11.9375 10.9873 14.6588 9.47351 18.5C10.9873 22.3412 14.7235 25.0625 19.0985 25.0625C23.4735 25.0625 27.2098 22.3412 28.7235 18.5C27.2098 14.6588 23.4735 11.9375 19.0985 11.9375Z" fill="white"/>
</svg>
