<svg width="38" height="37" viewBox="0 0 38 37" fill="none" xmlns="http://www.w3.org/2000/svg">
<rect x="0.0649414" width="37.2924" height="37" rx="6" fill="#04B663"/>
<path d="M23.9054 10.9062L26.3049 13.3058L24.4756 15.1358L22.0761 12.7363L23.9054 10.9062ZM15.1166 22.0945H17.5162L23.3447 16.266L20.9451 13.8665L15.1166 19.695V22.0945Z" fill="white"/>
<path d="M23.915 24.494H15.243C15.2222 24.494 15.2006 24.502 15.1799 24.502C15.1535 24.502 15.1271 24.4948 15.0999 24.494H12.7171V13.2961H18.1937L19.7934 11.6964H12.7171C11.8349 11.6964 11.1174 12.4131 11.1174 13.2961V24.494C11.1174 25.377 11.8349 26.0937 12.7171 26.0937H23.915C24.3392 26.0937 24.7461 25.9251 25.0461 25.6251C25.3461 25.3251 25.5147 24.9182 25.5147 24.494V17.5609L23.915 19.1606V24.494Z" fill="white"/>
</svg>
